<?xml version="1.0" encoding="UTF-8"?>
<svg width="48px" height="49px" viewBox="0 0 48 49" version="1.1" xmlns="http://www.w3.org/2000/svg" xmlns:xlink="http://www.w3.org/1999/xlink">
    <!-- Generator: sketchtool 50.2 (55047) - http://www.bohemiancoding.com/sketch -->
    <title>D40EC222-4F47-4AF6-906A-9025021FFCC5</title>
    <desc>Created with sketchtool.</desc>
    <defs></defs>
    <g id="Page-1" stroke="none" stroke-width="1" fill="none" fill-rule="evenodd">
        <g id="Front-1" transform="translate(-474.000000, -379.000000)">
            <g id="ic_pin" transform="translate(474.000000, 379.000000)">
                <path d="M37.6266142,25.8483098 C30.6181077,25.4397235 22.1387411,27.1864549 16.3094461,30.2396008 C13.5229965,31.6964103 11.5772391,33.3540959 10.7359108,34.9879673 C9.66569205,37.1915957 10.5242357,40.008014 13.0912532,43.3557181 C13.7568561,44.2281134 14.6395173,45.2272929 15.5142112,46.0966696 C16.1671092,46.7547395 16.9825857,47.6995829 17.2788877,47.9229644 C17.3596272,48.012375 17.5124064,48.0786139 17.7175266,48.1131406 C17.8269692,48.1309959 17.9482439,48.1401525 18.0773527,48.1403086 C18.330266,48.1418052 18.6081429,48.1035525 18.8667735,48.0316365 C19.3521403,47.898815 22.762628,46.5162646 24.4065012,45.8702694 C34.3227127,41.9761863 41.6917175,38.3809514 45.0798103,35.7426346 C45.8327446,35.1743339 46.4410747,34.5899855 46.8899227,34.0038812 C47.4055666,33.3555346 47.7432581,32.7094027 47.8948946,32.080989 C48.7195522,28.7360796 44.6351206,26.2568961 37.6266142,25.8483098 Z" id="shadow" fill="#000000" opacity="0.0969566231"></path>
                <path d="M20.1237275,0.128986844 C12.6950067,-0.766759992 5.48965829,3.06261263 2.00944719,9.75604791 C0.343795723,12.9498225 -0.309972458,16.5839794 0.13675738,20.1659283 C0.80463976,24.9969599 3.91487634,31.1714153 9.17936098,38.5106126 C10.5478651,40.4231717 12.2372146,42.6136806 13.8152504,44.5196218 C15.0004143,45.9623134 16.5784501,48.0337009 17.0564444,48.523422 C17.2093935,48.7194375 17.4169318,48.8646536 17.6523002,48.9403466 C17.7774313,48.979491 17.9076368,48.9995651 18.0386243,48.9999073 C18.2961651,49.0031882 18.5473943,48.9193266 18.7523418,48.7616646 C19.1386659,48.4704791 21.4958978,45.4395032 22.6483223,44.0232829 C29.6021565,35.4862545 34.2118545,27.6043934 35.5476193,21.8203912 C35.8587908,20.5745012 36.0106296,19.2934298 35.9994221,18.0085087 C36.0064143,16.5871335 35.8347971,15.1706136 35.4886885,13.7929373 C33.6641953,6.45986673 27.5524483,1.02473368 20.1237275,0.128986844 Z" id="pin" fill="#FDC543"></path>
                <circle id="Oval" fill="#FFFFFF" cx="18" cy="15" r="7"></circle>
            </g>
        </g>
    </g>
</svg>