<?xml version="1.0" encoding="UTF-8"?>
<svg width="11px" height="16px" viewBox="0 0 11 16" version="1.1" xmlns="http://www.w3.org/2000/svg" xmlns:xlink="http://www.w3.org/1999/xlink">
    <!-- Generator: sketchtool 51 (57462) - http://www.bohemiancoding.com/sketch -->
    <title>C29A5851-BB76-4795-9C8A-EA4721AF55CA</title>
    <desc>Created with sketchtool.</desc>
    <defs></defs>
    <g id="Page-1" stroke="none" stroke-width="1" fill="none" fill-rule="evenodd">
        <g id="Front-4" transform="translate(-507.000000, -606.000000)" fill="#000000" fill-rule="nonzero">
            <g id="windarrow" transform="translate(507.000000, 606.000000)">
                <path d="M10.7307013,9.96863469 C10.4418711,9.67807404 9.97344648,9.67807404 9.68461621,9.96863469 L6.21338646,13.4599452 L6.21338646,0.743959052 C6.21338646,0.333115105 5.88212814,0 5.4737064,0 C5.06516631,0 4.73402634,0.333115105 4.73402634,0.743959052 L4.73402634,13.4599452 L1.26279659,9.96875372 C0.973847971,9.67825259 0.505541733,9.67825259 0.216711464,9.96875372 C-0.0722371545,10.2593144 -0.0722371545,10.7303297 0.216711464,11.0208904 L4.95066384,15.7821093 C5.09499021,15.9273301 5.28440748,16 5.4737064,16 C5.66300532,16 5.85224507,15.9273301 5.99674896,15.7821093 L10.7307013,11.0207713 C11.0195908,10.7302107 11.0195908,10.2591953 10.7307013,9.96863469 Z" id="Shape"></path>
            </g>
        </g>
    </g>
</svg>